<svg version="1.2" xmlns="http://www.w3.org/2000/svg" viewBox="0 0 512 512" class="size-10"><path fill="#ff5353" d="m285.5 206.5v58h-58c0-32 26-58 58-58z"></path> <path fill="#9258de" d="m285.5 264v58c-32 0-58-26-58-58z"></path> <path fill="#ff842e" d="m343 264.5h-58v-58c31.8 0 58 26 58 58z"></path> <path fill="#4377ff" d="m343 264c0 32-26 58-58 58v-58z"></path><path fill="#fff" d="m178.2 345.4c-4.7 0-9.3-2.3-11.9-6.5-14.8-23.4-22.3-50.4-21.8-78.1 1.6-75.8 64.5-137.6 140.4-137.8q0.2 0 0.4 0c37.5 0 72.8 14.5 99.4 41.1 26.6 26.5 41.3 61.9 41.3 99.6 0 26.7-7.5 52.7-21.7 75.2-4.2 6.5-12.9 8.5-19.5 4.3-6.5-4.1-8.5-12.8-4.3-19.4 11.3-18 17.3-38.7 17.3-60.1 0-30.1-11.7-58.4-33-79.7-21.3-21.2-49.5-32.9-79.5-32.9q-0.2 0-0.3 0c-60.7 0.2-111 49.6-112.3 110.3-0.4 22.2 5.6 43.8 17.4 62.4 4.1 6.6 2.2 15.3-4.4 19.4-2.3 1.5-4.9 2.2-7.5 2.2z"></path><path fill="#fff" d="m285.5 486.9c-58.4 0-113.7-22.5-156-63.6-43.2-42-67.4-98.1-68.1-157.9-0.6-60.3 22.3-117.2 64.7-160.1 42.5-42.9 99.1-66.5 159.4-66.5 24.1 0 47.8 3.8 70.5 11.3 7.4 2.5 11.4 10.4 8.9 17.8-2.4 7.4-10.4 11.4-17.8 9-19.8-6.6-40.5-9.9-61.6-9.9-52.8 0-102.2 20.6-139.3 58.1-37.1 37.5-57.2 87.2-56.6 140 0.6 52.2 21.8 101.2 59.6 137.9 37.8 36.8 87.4 56.6 139.7 55.7 19.9-0.4 39.5-3.7 58.2-9.9 7.4-2.5 15.4 1.5 17.8 8.9 2.5 7.4-1.5 15.4-8.9 17.8-21.4 7.1-43.8 10.9-66.6 11.3q-1.9 0.1-3.9 0.1z"></path><path fill="#fff" d="m432.8 316.3c0 18.4-14.9 33.3-33.3 33.3-18.4 0-33.3-14.9-33.3-33.3 0-18.4 14.9-33.3 33.3-33.3 18.4 0 33.3 14.9 33.3 33.3z"></path><path fill="#fff" d="m368.5 59.7c0 19.8-16.1 35.9-35.9 35.9-19.8 0-35.9-16.1-35.9-35.9 0-19.8 16.1-35.8 35.9-35.8 19.8 0 35.9 16 35.9 35.8z"></path></svg>